<svg width="38" height="38" viewBox="0 0 38 38" fill="none" xmlns="http://www.w3.org/2000/svg">
<path d="M4.75 9.28125C7.25 9.28125 9.25 7.25 9.25 4.78125C9.25 2.3125 7.21875 0.28125 4.75 0.28125C2.28125 0.28125 0.25 2.3125 0.25 4.78125C0.25 7.25 2.28125 9.28125 4.75 9.28125ZM13.5312 12.6875V37.75H21.2812V25.375C21.2812 22.0938 21.9062 18.9375 25.9375 18.9375C29.9688 18.9375 29.9688 22.6875 29.9688 25.5625V37.75H37.75V24C37.75 17.25 36.3125 12.0625 28.4375 12.0625C24.6563 12.0625 22.125 14.125 21.0938 16.0938H21V12.6562H13.5625L13.5312 12.6875ZM0.875 12.6875H8.65625V37.75H0.875V12.6875Z" fill="white"/>
</svg>
