<svg width="124" height="124" viewBox="0 0 124 124" fill="none" xmlns="http://www.w3.org/2000/svg">
<rect x="2" y="2" width="120" height="120" rx="10.3226" stroke="url(#paint0_linear_382_6890)" stroke-width="2.58065"/>
<path fill-rule="evenodd" clip-rule="evenodd" d="M62 102C84.0914 102 102 84.0914 102 62C102 39.9086 84.0914 22 62 22C39.9086 22 22 39.9086 22 62C22 84.0914 39.9086 102 62 102ZM91.9998 62C91.9998 78.5685 78.5684 92 61.9998 92C46.1033 92 33.0946 79.6361 32.0654 64H74.9998V60H32.0654C33.0946 44.3639 46.1033 32 61.9998 32C78.5684 32 91.9998 45.4315 91.9998 62Z" fill="url(#paint1_linear_382_6890)"/>
<defs>
<linearGradient id="paint0_linear_382_6890" x1="135.303" y1="62" x2="-10.5296" y2="67.7991" gradientUnits="userSpaceOnUse">
<stop stop-color="#AF85E3"/>
<stop offset="0.284047" stop-color="#8B94E2"/>
<stop offset="0.636445" stop-color="#6FF2F2"/>
<stop offset="1" stop-color="#68E099"/>
</linearGradient>
<linearGradient id="paint1_linear_382_6890" x1="94" y1="33" x2="31.5" y2="88" gradientUnits="userSpaceOnUse">
<stop offset="0.0168679" stop-color="#5EFA58"/>
<stop offset="0.523157" stop-color="#0FFEB0"/>
<stop offset="1" stop-color="#00CAD7"/>
</linearGradient>
</defs>
</svg>
