<svg width="120" height="103" viewBox="0 0 120 103" fill="none" xmlns="http://www.w3.org/2000/svg">
<path d="M35.7136 69.216C31.2812 69.216 27.6762 68.1522 24.8986 66.0838C22.121 63.9563 20.7026 60.9423 20.7026 57.1009C20.7026 56.2735 20.8208 55.2688 20.9981 54.0869C21.4709 51.4274 22.1801 48.2361 23.0666 44.4538C25.6078 34.2889 32.1086 29.2065 42.569 29.2065C45.4057 29.2065 48.006 29.6793 50.2518 30.6839C52.4975 31.6295 54.2705 33.0479 55.5706 34.939C56.8708 36.8302 57.5209 39.0168 57.5209 41.6171C57.5209 42.3854 57.4027 43.3901 57.2254 44.572C56.6344 47.8815 55.9843 51.0728 55.216 54.205C53.9159 59.2875 51.6701 63.0698 48.4788 65.611C45.2875 68.0931 41.0324 69.3342 35.7136 69.3342V69.216ZM36.541 61.2377C38.6094 61.2377 40.3824 60.5877 41.8007 59.4057C43.2782 58.1646 44.3419 56.3326 44.992 53.7914C45.8785 50.3046 46.5286 47.2906 46.9423 44.6902C47.1196 43.922 47.1787 43.0946 47.1787 42.2672C47.1787 38.8986 45.4057 37.1847 41.9189 37.1847C39.8505 37.1847 38.0775 37.8348 36.6001 39.0168C35.1226 40.2579 34.1179 42.0899 33.4679 44.6311C32.7587 47.1133 32.1086 50.1273 31.4585 53.7323C31.2812 54.5005 31.2221 55.2688 31.2221 56.0962C31.163 59.5239 32.9951 61.2377 36.541 61.2377Z" fill="white"/>
<path d="M60.0029 68.6841C59.5893 68.6841 59.2938 68.5659 59.0574 68.2705C58.8801 67.975 58.821 67.6204 58.8801 67.2658L66.5628 31.2158C66.6219 30.8022 66.8583 30.4476 67.2129 30.2112C67.5675 29.9157 67.9221 29.7975 68.2767 29.7975H83.0513C87.1881 29.7975 90.4385 30.684 92.9207 32.3387C95.4619 34.0526 96.703 36.5347 96.703 39.726C96.703 40.6716 96.5848 41.6171 96.3484 42.6218C95.4028 46.8769 93.5708 50.0091 90.734 52.0775C87.9564 54.146 84.115 55.1506 79.269 55.1506H71.7635L69.2223 67.3249C69.1041 67.7386 68.9268 68.0932 68.5722 68.3296C68.2176 68.625 67.863 68.7432 67.5084 68.7432H59.9438L60.0029 68.6841ZM79.6236 47.4679C81.2192 47.4679 82.5194 47.0542 83.7013 46.1677C84.8833 45.2812 85.6516 44.0993 86.0653 42.5036C86.1835 41.8535 86.2426 41.3216 86.2426 40.8489C86.2426 39.7851 85.888 38.9577 85.297 38.3667C84.6469 37.7758 83.5831 37.4803 82.0466 37.4803H75.3685L73.241 47.4088H79.6236V47.4679Z" fill="white"/>
</svg>
