<svg width="108" height="108" viewBox="0 0 108 108" fill="none" xmlns="http://www.w3.org/2000/svg">
<path fill-rule="evenodd" clip-rule="evenodd" d="M94 54C94 58.2627 93.3332 62.3696 92.0983 66.2222H85.0213C86.5136 62.4378 87.3333 58.3146 87.3333 54C87.3333 49.6854 86.5136 45.5622 85.0213 41.7778H92.0983C93.3332 45.6304 94 49.7373 94 54ZM81.4687 35.1111C75.4574 26.386 65.3966 20.6667 54 20.6667C35.5905 20.6667 20.6667 35.5905 20.6667 54C20.6667 72.4095 35.5905 87.3333 54 87.3333C65.3966 87.3333 75.4574 81.614 81.4687 72.8889H89.2681C82.5238 85.455 69.2598 94 54 94C31.9086 94 14 76.0914 14 54C14 31.9086 31.9086 14 54 14C69.2598 14 82.5238 22.545 89.2681 35.1111H81.4687ZM72.8234 72.8889C68.0003 77.6954 61.3471 80.6667 54 80.6667C40.363 80.6667 29.1168 70.4303 27.526 57.2222H38.1626C39.6918 66.1193 47.4442 72.8889 56.7778 72.8889H72.8234ZM77.7071 66.2222H56.7778C51.1429 66.2222 46.3986 62.409 44.9848 57.2222L80.474 57.2222C80.0873 60.4325 79.1302 63.4673 77.7071 66.2222ZM45.0476 50.5555L80.4463 50.5555C80.0428 47.4273 79.0974 44.469 77.7071 41.7778H56.7778C51.2237 41.7778 46.5349 45.4824 45.0476 50.5555ZM38.2022 50.5555C39.8213 41.7682 47.5221 35.1111 56.7778 35.1111H72.8234C68.0003 30.3046 61.3471 27.3333 54 27.3333C40.4396 27.3333 29.2432 37.455 27.5537 50.5555H38.2022Z" fill="#BABABA"/>
</svg>
