<svg width="84" height="86" viewBox="0 0 84 86" fill="none" xmlns="http://www.w3.org/2000/svg">
<ellipse cx="41.7559" cy="42.705" rx="33.6895" ry="33.6895" fill="url(#paint0_radial_503_161)"/>
<path fill-rule="evenodd" clip-rule="evenodd" d="M32.3875 35.3661C32.3875 35.1867 32.4587 35.0146 32.5856 34.8877C32.7125 34.7609 32.8845 34.6896 33.0639 34.6896H47.2696C47.6284 34.6896 47.9725 34.5471 48.2262 34.2933C48.48 34.0396 48.6225 33.6955 48.6225 33.3367C48.6225 32.9779 48.48 32.6337 48.2262 32.38C47.9725 32.1263 47.6284 31.9838 47.2696 31.9838H33.0639C32.1669 31.9838 31.3066 32.3401 30.6723 32.9744C30.038 33.6087 29.6816 34.469 29.6816 35.3661V50.9246C29.6816 51.6423 29.9667 52.3305 30.4742 52.8379C30.9816 53.3454 31.6698 53.6305 32.3875 53.6305H51.3283C52.046 53.6305 52.7342 53.3454 53.2416 52.8379C53.7491 52.3305 54.0342 51.6423 54.0342 50.9246V38.7484C54.0342 38.0307 53.7491 37.3425 53.2416 36.835C52.7342 36.3276 52.046 36.0425 51.3283 36.0425H33.0639C32.8845 36.0425 32.7125 35.9712 32.5856 35.8444C32.4587 35.7175 32.3875 35.5455 32.3875 35.3661ZM46.5931 46.8659C47.1313 46.8659 47.6475 46.6521 48.0281 46.2715C48.4087 45.8909 48.6225 45.3747 48.6225 44.8365C48.6225 44.2983 48.4087 43.7821 48.0281 43.4015C47.6475 43.0209 47.1313 42.8071 46.5931 42.8071C46.0549 42.8071 45.5387 43.0209 45.1581 43.4015C44.7775 43.7821 44.5637 44.2983 44.5637 44.8365C44.5637 45.3747 44.7775 45.8909 45.1581 46.2715C45.5387 46.6521 46.0549 46.8659 46.5931 46.8659Z" fill="#68E099"/>
<path d="M82.4536 42.705C82.4536 65.3037 64.1337 83.6236 41.535 83.6236C18.9363 83.6236 0.616438 65.3037 0.616438 42.705C0.616438 20.1063 18.9363 1.78648 41.535 1.78648C64.1337 1.78648 82.4536 20.1063 82.4536 42.705Z" stroke="url(#paint1_linear_503_161)" stroke-width="1.23288"/>
<path d="M82.4536 42.705C82.4536 65.3037 64.1337 83.6236 41.535 83.6236C18.9363 83.6236 0.616438 65.3037 0.616438 42.705C0.616438 20.1063 18.9363 1.78648 41.535 1.78648C64.1337 1.78648 82.4536 20.1063 82.4536 42.705Z" stroke="url(#paint2_linear_503_161)" stroke-width="1.23288"/>
<circle cx="49.4323" cy="2.0475" r="1.43106" stroke="#68E099" stroke-width="1.23288"/>
<circle cx="47.0924" cy="83.3626" r="1.43106" stroke="#68E099" stroke-width="1.23288"/>
<defs>
<radialGradient id="paint0_radial_503_161" cx="0" cy="0" r="1" gradientUnits="userSpaceOnUse" gradientTransform="translate(41.7559 42.705) rotate(90) scale(42.2305 42.2305)">
<stop stop-color="#111215" stop-opacity="0.15"/>
<stop offset="1" stop-color="#68E099" stop-opacity="0.5"/>
</radialGradient>
<linearGradient id="paint1_linear_503_161" x1="72.2475" y1="66.3976" x2="65.8125" y2="61.425" gradientUnits="userSpaceOnUse">
<stop stop-color="#68E099"/>
<stop offset="1" stop-color="#68E099" stop-opacity="0"/>
</linearGradient>
<linearGradient id="paint2_linear_503_161" x1="21.06" y1="10.2375" x2="30.1275" y2="19.305" gradientUnits="userSpaceOnUse">
<stop stop-color="#68E099"/>
<stop offset="1" stop-color="#68E099" stop-opacity="0"/>
</linearGradient>
</defs>
</svg>
