<svg width="268" height="627" viewBox="0 0 268 627" fill="none" xmlns="http://www.w3.org/2000/svg">
<path d="M97.6085 -4.22289e-06L97.6085 33.2137C97.6085 53.7823 97.6085 64.0666 101.927 71.7777C104.979 77.2275 109.479 81.7271 114.928 84.7791C122.639 89.0976 132.924 89.0976 153.492 89.0976L208.776 89.0976C219.336 89.0976 224.616 89.0976 228.947 90.265C240.594 93.4049 249.693 102.503 252.833 114.151C254 118.482 254 123.762 254 134.322V134.322C254 144.882 254 150.162 252.833 154.492C249.693 166.14 240.594 175.238 228.947 178.378C224.616 179.546 219.336 179.546 208.776 179.546L48.9771 179.546C35.845 179.546 29.2789 179.546 23.9852 181.342C14.012 184.727 6.18083 192.558 2.79644 202.531C1.00002 207.825 1.00002 214.391 1.00002 227.523V227.523C1.00002 240.655 1.00002 247.221 2.79643 252.515C6.18083 262.488 14.012 270.319 23.9852 273.704C29.2789 275.5 35.845 275.5 48.9772 275.5L132.668 275.5C140.067 275.5 143.767 275.5 146.85 276.076C160.599 278.644 171.356 289.401 173.924 303.15C174.5 306.233 174.5 309.933 174.5 317.332V317.332C174.5 324.731 174.5 328.431 173.924 331.514C171.356 345.264 160.599 356.02 146.85 358.588C143.767 359.164 140.067 359.164 132.668 359.164L123.665 359.164C107.855 359.164 99.9502 359.164 93.7163 361.752C85.4355 365.189 78.8553 371.769 75.4183 380.05C72.8309 386.284 72.8309 394.189 72.8309 409.999L72.8309 432.116C72.8309 452.685 72.8309 462.969 77.1493 470.68C80.2013 476.13 84.701 480.63 90.1508 483.682C97.8619 488 108.146 488 128.715 488L236.39 488C253.019 488 266.5 501.481 266.5 518.11V518.11C266.5 534.739 253.019 548.22 236.39 548.22L198.884 548.22C178.315 548.22 168.031 548.22 160.32 552.538C154.87 555.59 150.37 560.09 147.318 565.54C143 573.251 143 583.535 143 604.103L143 627" stroke="white" stroke-opacity="0.8" stroke-width="2"/>
</svg>
