<svg width="102" height="101" viewBox="0 0 102 101" fill="none" xmlns="http://www.w3.org/2000/svg">
<path d="M51.0986 4.20312C61.0964 4.20313 70.6854 8.17462 77.7549 15.2441C84.8244 22.3137 88.7959 31.9026 88.7959 41.9004C88.7957 57.5067 76.9002 73.8583 53.6123 91.3242C52.8873 91.868 52.0049 92.1621 51.0986 92.1621C50.1925 92.162 49.3108 91.8679 48.5859 91.3242C25.2981 73.8583 13.4026 57.5067 13.4023 41.9004C13.4023 31.9026 17.3738 22.3137 24.4434 15.2441C31.5128 8.17474 41.101 4.20325 51.0986 4.20312Z" fill="url(#paint0_radial_647_31121)"/>
<path d="M61.985 50.4921L69.9852 58.5918L67.3086 61.2348L59.3104 53.1332C56.3003 55.5152 52.567 56.7975 48.7286 56.7678C39.3902 56.709 31.8589 49.0821 31.9178 39.7437C31.9766 30.4052 39.6035 22.874 48.9419 22.9328C58.2804 22.9917 65.8117 30.6185 65.7528 39.957C65.734 43.7954 64.4047 47.5123 61.985 50.4921Z" fill="#6FF2F2"/>
<path d="M45.4859 44.6402C46.1684 44.6445 46.7304 44.0896 46.7347 43.4071L46.7621 39.0639C46.7664 38.3814 46.2115 37.8195 45.529 37.8152C44.8465 37.8109 44.2845 38.3658 44.2802 39.0483L44.2529 43.3915C44.2486 44.074 44.8034 44.6359 45.4859 44.6402ZM51.7101 41.577L51.6983 43.4384C51.694 44.1209 52.2489 44.6828 52.9314 44.6871C53.6139 44.6914 54.1759 44.1365 54.1802 43.454L54.1919 41.5927C54.1962 40.9102 53.6413 40.3482 52.9588 40.3439C52.2763 40.3396 51.7144 40.8945 51.7101 41.577ZM49.2087 44.6637C49.8912 44.668 50.4531 44.1131 50.4574 43.4306L50.5044 35.9851C50.5087 35.3026 49.9538 34.7407 49.2713 34.7364C48.5888 34.7321 48.0268 35.287 48.0225 35.9695L47.9756 43.4149C47.9713 44.0974 48.5262 44.6594 49.2087 44.6637Z" fill="#2F2F2F"/>
<defs>
<radialGradient id="paint0_radial_647_31121" cx="0" cy="0" r="1" gradientUnits="userSpaceOnUse" gradientTransform="translate(51.0991 48.1827) rotate(90) scale(55.1293 47.2537)">
<stop stop-color="#111215" stop-opacity="0.15"/>
<stop offset="1" stop-color="#6FF2F2" stop-opacity="0.5"/>
</radialGradient>
</defs>
</svg>
