<svg width="55" height="56" viewBox="0 0 55 56" fill="none" xmlns="http://www.w3.org/2000/svg">
<path d="M27.3877 3.17578C32.8256 3.17589 38.0405 5.33645 41.8857 9.18164C45.7311 13.027 47.8916 18.2425 47.8916 23.6807C47.8914 32.1694 41.4209 41.0632 28.7539 50.5635C28.3597 50.8592 27.8805 51.0194 27.3877 51.0195C26.8947 51.0195 26.4149 50.8592 26.0205 50.5635C13.3536 41.0632 6.88301 32.1694 6.88281 23.6807C6.88281 18.2425 9.04334 13.027 12.8887 9.18164C16.734 5.3363 21.9496 3.17578 27.3877 3.17578Z" fill="url(#paint0_radial_647_31156)"/>
<g clip-path="url(#clip0_647_31156)">
<mask id="mask0_647_31156" style="mask-type:luminance" maskUnits="userSpaceOnUse" x="17" y="13" width="21" height="21">
<path d="M17 13H38V34H17V13Z" fill="white"/>
</mask>
<g mask="url(#mask0_647_31156)">
<path d="M33.5375 13.9844H36.758L29.723 22.0454L38 33.0164H31.52L26.441 26.3639L20.636 33.0164H17.4125L24.9365 24.3914L17 13.9859H23.645L28.229 20.0654L33.5375 13.9844ZM32.405 31.0844H34.19L22.67 15.8159H20.756L32.405 31.0844Z" fill="#AF85E3"/>
</g>
</g>
<defs>
<radialGradient id="paint0_radial_647_31156" cx="0" cy="0" r="1" gradientUnits="userSpaceOnUse" gradientTransform="translate(27.3873 27.0977) rotate(90) scale(29.9866 25.7028)">
<stop stop-color="#111215" stop-opacity="0.15"/>
<stop offset="1" stop-color="#AF85E3" stop-opacity="0.5"/>
</radialGradient>
<clipPath id="clip0_647_31156">
<rect width="21" height="21" fill="white" transform="translate(17 13)"/>
</clipPath>
</defs>
</svg>
