<svg width="102" height="101" viewBox="0 0 102 101" fill="none" xmlns="http://www.w3.org/2000/svg">
<path fill-rule="evenodd" clip-rule="evenodd" d="M77.7548 15.2443C70.6852 8.17474 61.0969 4.20312 51.0991 4.20312C41.1013 4.20312 31.513 8.17474 24.4435 15.2443C17.374 22.3138 13.4023 31.9021 13.4023 41.8999C13.4023 57.5064 25.2978 73.8584 48.586 91.3246C49.311 91.8683 50.1928 92.1623 51.0991 92.1623C52.0054 92.1623 52.8872 91.8683 53.6122 91.3246C76.9005 73.8584 88.7959 57.5064 88.7959 41.8999C88.7959 31.9021 84.8243 22.3138 77.7548 15.2443Z" fill="url(#paint0_radial_665_777)"/>
<path d="M53.9561 33.5994L63.1089 40.7886C63.2086 40.867 63.2891 40.967 63.3445 41.081C63.3999 41.1951 63.4287 41.3202 63.4287 41.447C63.4287 41.5738 63.3999 41.699 63.3445 41.813C63.2891 41.9271 63.2086 42.0271 63.1089 42.1055L53.9561 49.2963C53.8225 49.4013 53.6601 49.4632 53.4905 49.4738C53.321 49.4843 53.1522 49.4431 53.0066 49.3555C52.861 49.2679 52.7455 49.138 52.6754 48.9832C52.6053 48.8284 52.5839 48.656 52.6141 48.4888L53.2089 45.2133C44.805 43.1961 41.3001 47.7164 39.9497 50.6333C39.752 51.0589 38.921 50.9768 38.8774 50.511C37.7968 38.4464 45.7164 36.6989 53.2357 37.8332L52.6141 34.4053C52.5838 34.2382 52.6051 34.0659 52.6749 33.9111C52.7448 33.7564 52.8601 33.6265 53.0054 33.5388C53.1508 33.451 53.3194 33.4095 53.4888 33.4197C53.6583 33.43 53.8207 33.4914 53.9544 33.596" fill="#6FF2F2"/>
<path d="M53.9561 33.5994L63.1089 40.7886C63.2086 40.867 63.2891 40.967 63.3445 41.081C63.3999 41.1951 63.4287 41.3202 63.4287 41.447C63.4287 41.5738 63.3999 41.699 63.3445 41.813C63.2891 41.9271 63.2086 42.0271 63.1089 42.1055L53.9561 49.2963C53.8225 49.4013 53.6601 49.4632 53.4905 49.4738C53.321 49.4843 53.1522 49.4431 53.0066 49.3555C52.861 49.2679 52.7455 49.138 52.6754 48.9832C52.6053 48.8284 52.5839 48.656 52.6141 48.4888L53.2089 45.2133C44.805 43.1961 41.3001 47.7164 39.9497 50.6333C39.752 51.0589 38.921 50.9768 38.8774 50.511C37.7968 38.4464 45.7164 36.6989 53.2357 37.8332L52.6141 34.4053C52.5838 34.2382 52.6051 34.0659 52.6749 33.9111C52.7448 33.7564 52.8601 33.6265 53.0054 33.5388C53.1508 33.451 53.3194 33.4095 53.4888 33.4197C53.6583 33.43 53.8207 33.4914 53.9544 33.596" stroke="#6FF2F2" stroke-width="1.00525" stroke-linecap="round" stroke-linejoin="round"/>
<defs>
<radialGradient id="paint0_radial_665_777" cx="0" cy="0" r="1" gradientUnits="userSpaceOnUse" gradientTransform="translate(51.0991 48.1827) rotate(90) scale(55.1293 47.2537)">
<stop stop-color="#111215" stop-opacity="0.15"/>
<stop offset="1" stop-color="#6FF2F2" stop-opacity="0.5"/>
</radialGradient>
</defs>
</svg>
