<svg width="69" height="68" viewBox="0 0 69 68" fill="none" xmlns="http://www.w3.org/2000/svg">
<path d="M34.5119 3.58789C41.1988 3.58789 47.6118 6.24426 52.3402 10.9726C57.0686 15.701 59.7249 22.114 59.7249 28.8009C59.7249 39.2392 51.7688 50.176 36.1928 61.8581C35.7078 62.2218 35.118 62.4184 34.5119 62.4184C33.9057 62.4184 33.3159 62.2218 32.831 61.8581C17.2549 50.176 9.29883 39.2392 9.29883 28.8009C9.29883 22.114 11.9552 15.701 16.6836 10.9726C21.4119 6.24426 27.825 3.58789 34.5119 3.58789ZM34.5119 20.3966C32.2829 20.3966 30.1452 21.2821 28.5691 22.8582C26.993 24.4343 26.1075 26.572 26.1075 28.8009C26.1075 31.0299 26.993 33.1676 28.5691 34.7437C30.1452 36.3198 32.2829 37.2053 34.5119 37.2053C36.7409 37.2053 38.8785 36.3198 40.4547 34.7437C42.0308 33.1676 42.9162 31.0299 42.9162 28.8009C42.9162 26.572 42.0308 24.4343 40.4547 22.8582C38.8785 21.2821 36.7409 20.3966 34.5119 20.3966Z" fill="url(#paint0_radial_665_792)"/>
<circle cx="34.5003" cy="28.9876" r="10.0852" fill="#26342D"/>
<path fill-rule="evenodd" clip-rule="evenodd" d="M25.2545 19.6035C25.0316 19.6035 24.8178 19.6921 24.6602 19.8497C24.5026 20.0073 24.4141 20.2211 24.4141 20.444V38.9335C24.4141 39.1564 24.5026 39.3702 24.6602 39.5278C24.8178 39.6854 25.0316 39.774 25.2545 39.774H43.7441C43.967 39.774 44.1807 39.6854 44.3384 39.5278C44.496 39.3702 44.5845 39.1564 44.5845 38.9335V20.444C44.5845 20.2211 44.496 20.0073 44.3384 19.8497C44.1807 19.6921 43.967 19.6035 43.7441 19.6035H25.2545ZM27.7758 26.327H37.861V24.6461H27.7758V26.327ZM39.5419 26.327H41.2228V24.6461H39.5419V26.327ZM37.861 30.5292H27.7758V28.8483H37.861V30.5292ZM39.5419 30.5292H41.2228V28.8483H39.5419V30.5292ZM37.861 34.7313H27.7758V33.0505H37.861V34.7313ZM39.5419 34.7313H41.2228V33.0505H39.5419V34.7313Z" fill="#68E099"/>
<defs>
<radialGradient id="paint0_radial_665_792" cx="0" cy="0" r="1" gradientUnits="userSpaceOnUse" gradientTransform="translate(34.5119 33.0031) rotate(90) scale(36.8726 31.6051)">
<stop stop-color="#111215" stop-opacity="0.15"/>
<stop offset="1" stop-color="#68E099" stop-opacity="0.5"/>
</radialGradient>
</defs>
</svg>
