<svg width="60" height="61" viewBox="0 0 60 61" fill="none" xmlns="http://www.w3.org/2000/svg">
<path d="M30.0986 3.42188C35.9844 3.42188 41.6291 5.76003 45.791 9.92188C49.9529 14.0838 52.291 19.7285 52.291 25.6143C52.291 34.8019 45.2881 44.4284 31.5781 54.7109C31.1513 55.0311 30.6322 55.2041 30.0986 55.2041C29.5651 55.2041 29.0459 55.031 28.6191 54.7109C14.9092 44.4285 7.90625 34.8019 7.90625 25.6143C7.90627 19.7285 10.2444 14.0838 14.4062 9.92188C18.5681 5.76 24.2129 3.42189 30.0986 3.42188Z" fill="url(#paint0_radial_647_31110)"/>
<path d="M39.1941 19.5241L36.5429 31.936C36.3451 32.8101 35.8376 33.007 35.1044 32.6124L31.1275 29.6794L29.1806 31.5405C28.9838 31.7383 28.786 31.936 28.3345 31.936L28.6451 27.8454L36.0634 21.1044C36.3731 20.7938 35.9785 20.6809 35.5839 20.9355L26.3605 26.7455L22.3828 25.5328C21.5086 25.251 21.5086 24.6578 22.5805 24.264L38.0374 18.2554C38.7986 18.0296 39.4479 18.4251 39.1941 19.5241Z" fill="#6FF2F2"/>
<defs>
<radialGradient id="paint0_radial_647_31110" cx="0" cy="0" r="1" gradientUnits="userSpaceOnUse" gradientTransform="translate(30.0987 29.3131) rotate(90) scale(32.4552 27.8187)">
<stop stop-color="#111215" stop-opacity="0.15"/>
<stop offset="1" stop-color="#6FF2F2" stop-opacity="0.5"/>
</radialGradient>
</defs>
</svg>
