<svg width="61" height="60" viewBox="0 0 61 60" fill="none" xmlns="http://www.w3.org/2000/svg">
<path d="M30.6357 2.48828C36.595 2.4883 42.3105 4.85547 46.5244 9.06934C50.7383 13.2832 53.1055 18.9987 53.1055 24.958C53.1054 34.2604 46.0149 44.0071 32.1338 54.418C31.7016 54.7421 31.1759 54.918 30.6357 54.918C30.0955 54.918 29.5699 54.7421 29.1377 54.418C15.2565 44.0071 8.16605 34.2604 8.16602 24.958C8.16602 18.9987 10.5332 13.2832 14.7471 9.06934C18.9609 4.85546 24.6764 2.48828 30.6357 2.48828Z" fill="url(#paint0_radial_647_31144)"/>
<path d="M31 14.75C28.9727 14.75 26.991 15.3512 25.3054 16.4774C23.6198 17.6037 22.306 19.2046 21.5302 21.0775C20.7544 22.9504 20.5515 25.0114 20.947 26.9997C21.3425 28.988 22.3187 30.8144 23.7522 32.2478C25.1856 33.6813 27.012 34.6576 29.0003 35.053C30.9886 35.4485 33.0496 35.2456 34.9225 34.4698C36.7955 33.694 38.3963 32.3802 39.5226 30.6946C40.6489 29.009 41.25 27.0273 41.25 25C41.2474 22.2823 40.1666 19.6768 38.2449 17.7551C36.3232 15.8334 33.7177 14.7526 31 14.75ZM31.75 30.75V31.54C31.75 31.7389 31.671 31.9297 31.5303 32.0703C31.3897 32.211 31.1989 32.29 31 32.29C30.8011 32.29 30.6103 32.211 30.4697 32.0703C30.329 31.9297 30.25 31.7389 30.25 31.54V30.75C29.5983 30.6526 28.9879 30.3716 28.49 29.94C28.1346 29.6421 27.842 29.2765 27.6291 28.8645C27.4163 28.4524 27.2874 28.0022 27.25 27.54C27.2373 27.3922 27.2688 27.2441 27.3403 27.1142C27.4119 26.9843 27.5203 26.8785 27.6519 26.8102C27.7836 26.7419 27.9325 26.7142 28.0799 26.7306C28.2273 26.7469 28.3665 26.8066 28.48 26.902C28.6331 27.0294 28.73 27.2118 28.75 27.41C28.7691 27.6775 28.8418 27.9383 28.9638 28.1771C29.0858 28.4159 29.2545 28.6277 29.46 28.8C29.8732 29.1532 30.4073 29.3325 30.95 29.3C32.51 29.3 33.25 28.7 33.25 27.48C33.25 26.67 32.54 25.8 31 25.8C27.74 25.8 27.25 23.8 27.25 22.65C27.2767 21.9329 27.5231 21.2412 27.956 20.6688C28.3889 20.0964 28.9872 19.6709 29.67 19.45C29.86 19.3913 30.0533 19.348 30.25 19.32V18.54C30.25 18.3411 30.329 18.1503 30.4697 18.0097C30.6103 17.869 30.8011 17.79 31 17.79C31.1989 17.79 31.3897 17.869 31.5303 18.0097C31.671 18.1503 31.75 18.3411 31.75 18.54V19.35C32.5351 19.4809 33.2549 19.8676 33.7974 20.45C34.34 21.0323 34.6749 21.7776 34.75 22.57C34.7582 22.7613 34.693 22.9485 34.5676 23.0932C34.4423 23.2379 34.2663 23.3293 34.0758 23.3484C33.8853 23.3676 33.6947 23.3132 33.543 23.1964C33.3913 23.0795 33.2901 22.9091 33.26 22.72C33.2044 22.1773 32.9437 21.6763 32.531 21.3194C32.1184 20.9626 31.5851 20.7768 31.04 20.8H30.86C30.6164 20.7981 30.3739 20.8318 30.14 20.9C29.8841 20.9835 29.6477 21.1177 29.445 21.2947C29.2422 21.4717 29.0773 21.6878 28.96 21.93C28.8397 22.1697 28.7716 22.4321 28.76 22.7C28.76 23.52 29.03 24.32 31.01 24.32C33.47 24.32 34.76 25.92 34.76 27.5C34.7733 27.9117 34.7047 28.322 34.5581 28.707C34.4116 29.092 34.19 29.4441 33.9062 29.7427C33.6224 30.0414 33.2822 30.2807 32.9052 30.4467C32.5281 30.6128 32.1219 30.7023 31.71 30.71L31.75 30.75Z" fill="#8B94E2"/>
<defs>
<radialGradient id="paint0_radial_647_31144" cx="0" cy="0" r="1" gradientUnits="userSpaceOnUse" gradientTransform="translate(30.6357 28.7031) rotate(90) scale(32.8609 28.1663)">
<stop stop-color="#111215" stop-opacity="0.15"/>
<stop offset="1" stop-color="#8B94E2" stop-opacity="0.5"/>
</radialGradient>
</defs>
</svg>
