<svg width="81" height="82" viewBox="0 0 81 82" fill="none" xmlns="http://www.w3.org/2000/svg">
<path fill-rule="evenodd" clip-rule="evenodd" d="M61.3936 13.0041C55.7509 7.36144 48.0978 4.19141 40.1178 4.19141C32.1379 4.19141 24.4847 7.36144 18.842 13.0041C13.1993 18.6468 10.0293 26.3 10.0293 34.2799C10.0293 46.7366 19.5239 59.7883 38.1119 73.7294C38.6906 74.1634 39.3945 74.398 40.1178 74.398C40.8412 74.398 41.5451 74.1634 42.1237 73.7294C60.7118 59.7883 70.2064 46.7366 70.2064 34.2799C70.2064 26.3 67.0363 18.6468 61.3936 13.0041Z" fill="url(#paint0_radial_665_784)"/>
<path d="M40.1148 21.1658C41.4372 21.1658 42.73 21.5579 43.8295 22.2926C44.9291 23.0273 45.7861 24.0716 46.2922 25.2934C46.7982 26.5151 46.9306 27.8595 46.6727 29.1566C46.4147 30.4536 45.7778 31.645 44.8427 32.5801C43.9076 33.5152 42.7162 34.152 41.4192 34.41C40.1222 34.668 38.7778 34.5356 37.556 34.0295C36.3343 33.5234 35.29 32.6664 34.5553 31.5668C33.8206 30.4673 33.4284 29.1745 33.4284 27.8521L33.4351 27.5619C33.5099 25.8405 34.2463 24.2144 35.4908 23.0228C36.7353 21.8311 38.3918 21.1659 40.1148 21.1658ZM42.7893 37.213C44.5627 37.213 46.2633 37.9174 47.5173 39.1714C48.7712 40.4253 49.4757 42.126 49.4757 43.8993V45.2366C49.4757 45.9459 49.1939 46.6262 48.6923 47.1278C48.1907 47.6294 47.5105 47.9111 46.8011 47.9111H33.4284C32.7191 47.9111 32.0388 47.6294 31.5373 47.1278C31.0357 46.6262 30.7539 45.9459 30.7539 45.2366V43.8993C30.7539 42.126 31.4584 40.4253 32.7123 39.1714C33.9662 37.9174 35.6669 37.213 37.4402 37.213H42.7893Z" fill="#63A7FA"/>
<defs>
<radialGradient id="paint0_radial_665_784" cx="0" cy="0" r="1" gradientUnits="userSpaceOnUse" gradientTransform="translate(40.1178 39.2947) rotate(90) scale(44.0027 37.7166)">
<stop stop-color="#111215" stop-opacity="0.15"/>
<stop offset="1" stop-color="#63A7FA" stop-opacity="0.5"/>
</radialGradient>
</defs>
</svg>
