<svg width="112" height="112" viewBox="0 0 112 112" fill="none" xmlns="http://www.w3.org/2000/svg">
<path d="M28.6531 21.6907C35.9432 14.5107 45.7675 10.4905 55.9997 10.5C66.2477 10.5 76.0851 14.518 83.3464 21.6907C89.9217 28.1774 93.3471 35.4387 94.2524 42.98C95.1531 50.456 93.5431 57.96 90.4724 64.9974C84.3777 78.9974 72.2631 91.728 60.6431 100.011C59.2887 100.98 57.6651 101.501 55.9997 101.501C54.3344 101.501 52.7108 100.98 51.3564 100.011C39.7364 91.728 27.6217 78.9927 21.5224 64.9974C18.4564 57.96 16.8511 50.456 17.7471 42.9754C18.6524 35.4387 22.0777 28.182 28.6531 21.6907ZM43.1664 46.6667C43.1664 43.2631 44.5185 39.9989 46.9252 37.5921C49.3319 35.1854 52.5961 33.8334 55.9997 33.8334C59.4033 33.8334 62.6675 35.1854 65.0743 37.5921C67.481 39.9989 68.8331 43.2631 68.8331 46.6667C68.8331 50.0703 67.481 53.3345 65.0743 55.7412C62.6675 58.1479 59.4033 59.5 55.9997 59.5C52.5961 59.5 49.3319 58.1479 46.9252 55.7412C44.5185 53.3345 43.1664 50.0703 43.1664 46.6667Z" fill="url(#paint0_radial_647_31336)"/>
<path d="M55.9487 35.3193C57.593 35.3193 59.2003 35.8069 60.5675 36.7204C61.9347 37.634 63.0003 38.9324 63.6295 40.4515C64.2587 41.9706 64.4234 43.6422 64.1026 45.2549C63.7818 46.8676 62.99 48.349 61.8273 49.5116C60.6646 50.6743 59.1833 51.4661 57.5706 51.7869C55.9579 52.1077 54.2863 51.9431 52.7672 51.3138C51.2481 50.6846 49.9497 49.619 49.0361 48.2518C48.1226 46.8846 47.635 45.2773 47.635 43.633L47.6433 43.2722C47.7363 41.1318 48.652 39.11 50.1993 37.6283C51.7467 36.1466 53.8063 35.3195 55.9487 35.3193ZM59.2742 55.2721C61.4791 55.2721 63.5937 56.148 65.1528 57.7071C66.7119 59.2662 67.5878 61.3809 67.5878 63.5858L67.5878 65.2485C67.5878 66.1305 67.2374 66.9763 66.6138 67.6C65.9902 68.2236 65.1443 68.574 64.2623 68.574L47.635 68.574C46.7531 68.574 45.9072 68.2236 45.2836 67.6C44.6599 66.9763 44.3096 66.1305 44.3096 65.2485L44.3096 63.5858C44.3096 61.3809 45.1855 59.2662 46.7446 57.7071C48.3037 56.148 50.4183 55.2721 52.6232 55.2721L59.2742 55.2721Z" fill="#8B94E2"/>
<defs>
<radialGradient id="paint0_radial_647_31336" cx="0" cy="0" r="1" gradientUnits="userSpaceOnUse" gradientTransform="translate(56.0006 56.0007) rotate(90) scale(57.0361 48.2613)">
<stop stop-color="#111215" stop-opacity="0.15"/>
<stop offset="1" stop-color="#8B94E2" stop-opacity="0.5"/>
</radialGradient>
</defs>
</svg>
