<svg width="81" height="82" viewBox="0 0 81 82" fill="none" xmlns="http://www.w3.org/2000/svg">
<path d="M40.1182 4.19141C48.0979 4.19149 55.7509 7.36139 61.3936 13.0039C67.0363 18.6466 70.2061 26.3003 70.2061 34.2803C70.2059 46.7368 60.7118 59.7886 42.124 73.7295C41.5454 74.1634 40.8414 74.3984 40.1182 74.3984C39.3949 74.3984 38.6909 74.1634 38.1123 73.7295C19.5244 59.7886 10.0295 46.7368 10.0293 34.2803C10.0293 26.3003 13.1991 18.6466 18.8418 13.0039C24.4845 7.36121 32.1382 4.19141 40.1182 4.19141Z" fill="url(#paint0_radial_647_31128)"/>
<path d="M33.7473 24.8984C30.2946 26.8813 27.958 30.583 27.958 34.8502C27.958 39.1402 30.3205 42.8564 33.8037 44.831C31.4868 42.551 29.9829 38.945 29.9829 34.8502C29.9829 30.7843 31.4584 27.1813 33.7472 24.8984H33.7473ZM45.3531 25.0114C47.5784 27.2995 49.003 30.8507 49.003 34.8502C49.003 38.8604 47.5611 42.4002 45.3256 44.6875C48.6795 42.6801 50.9424 39.0432 50.9424 34.8501C50.9424 30.6573 48.6952 27.0215 45.353 25.0113L45.3531 25.0114ZM36.5992 27.2925C33.5999 28.4945 31.4661 31.4214 31.4661 34.8501C31.4661 38.2883 33.6143 41.2106 36.6265 42.4063C34.6076 40.9292 33.2344 38.1009 33.2344 34.8502C33.2344 31.6097 34.5906 28.7736 36.5991 27.2925H36.5992ZM43.5572 27.7212C45.275 29.2819 46.3799 31.8993 46.3799 34.8501C46.3799 37.8352 45.252 40.4542 43.5007 42.0081C46.04 40.6287 47.7777 37.9434 47.7777 34.8503C47.7777 31.7797 46.0662 29.1098 43.5572 27.7214V27.7212ZM37.9312 29.8728C35.8487 30.573 34.3606 32.5317 34.3606 34.8502C34.3606 37.1896 35.8728 39.1717 37.9847 39.8551C36.664 38.9491 35.74 37.0583 35.74 34.8502C35.74 32.6738 36.6413 30.794 37.9312 29.8728ZM41.7444 30.0361C42.9083 31.009 43.6654 32.8056 43.6654 34.8502C43.6654 36.9261 42.8846 38.7311 41.6909 39.6934C43.5667 38.8895 44.8831 37.0202 44.8831 34.8502C44.8831 32.7018 43.5903 30.8528 41.7444 30.0361ZM39.7928 33.3198C38.8016 33.3198 37.9983 34.123 37.9983 35.1142C37.9983 35.8703 38.4658 36.5177 39.1275 36.782V47.1885H40.4581V36.782C41.1201 36.5178 41.5872 35.8705 41.5872 35.1142C41.5872 34.123 40.784 33.3198 39.7928 33.3198Z" fill="#AF85E3"/>
<defs>
<radialGradient id="paint0_radial_647_31128" cx="0" cy="0" r="1" gradientUnits="userSpaceOnUse" gradientTransform="translate(40.1177 39.2949) rotate(90) scale(44.003 37.7164)">
<stop stop-color="#111215" stop-opacity="0.15"/>
<stop offset="1" stop-color="#AF85E3" stop-opacity="0.5"/>
</radialGradient>
</defs>
</svg>
