<svg width="108" height="108" viewBox="0 0 108 108" fill="none" xmlns="http://www.w3.org/2000/svg">
<path d="M32.1422 72.8172C28.1531 72.8172 24.9086 71.6981 22.4087 69.522C19.9088 67.2838 18.6323 64.113 18.6323 60.0717C18.6323 59.2013 18.7387 58.1444 18.8983 56.9009C19.3238 54.1031 19.962 50.7458 20.7599 46.7667C23.047 36.0729 28.8977 30.7261 38.312 30.7261C40.8651 30.7261 43.2054 31.2235 45.2265 32.2804C47.2477 33.2752 48.8434 34.7673 50.0135 36.7569C51.1837 38.7464 51.7687 41.0468 51.7687 43.7824C51.7687 44.5906 51.6623 45.6476 51.5028 46.891C50.9709 50.3727 50.3858 53.7301 49.6944 57.0252C48.5242 62.3721 46.5031 66.3512 43.6309 69.0246C40.7587 71.6359 36.9291 72.9415 32.1422 72.9415V72.8172ZM32.8868 64.4238C34.7484 64.4238 36.3441 63.7399 37.6206 62.4965C38.9503 61.1908 39.9077 59.2635 40.4928 56.59C41.2906 52.9218 41.8757 49.751 42.248 47.0154C42.4076 46.2071 42.4607 45.3367 42.4607 44.4663C42.4607 40.9224 40.8651 39.1194 37.727 39.1194C35.8654 39.1194 34.2697 39.8033 32.94 41.0468C31.6103 42.3524 30.7061 44.2798 30.121 46.9532C29.4828 49.5645 28.8977 52.7353 28.3126 56.5279C28.1531 57.3361 28.0999 58.1444 28.0999 59.0148C28.0467 62.6208 29.6955 64.4238 32.8868 64.4238Z" fill="#D00505"/>
<path d="M54.0027 72.2576C53.6304 72.2576 53.3644 72.1332 53.1517 71.8224C52.9921 71.5115 52.9389 71.1385 52.9921 70.7654L59.9066 32.8399C59.9598 32.4047 60.1726 32.0317 60.4917 31.783C60.8108 31.4721 61.1299 31.3478 61.4491 31.3478H74.7462C78.4694 31.3478 81.3947 32.2804 83.6287 34.0212C85.9158 35.8242 87.0327 38.4355 87.0327 41.7928C87.0327 42.7876 86.9263 43.7824 86.7136 44.8393C85.8626 49.3158 84.2137 52.6109 81.6607 54.787C79.1608 56.963 75.7036 58.02 71.3421 58.02H64.5872L62.3001 70.8276C62.1937 71.2628 62.0341 71.6359 61.715 71.8846C61.3959 72.1954 61.0768 72.3198 60.7576 72.3198H53.9495L54.0027 72.2576ZM71.6613 49.9375C73.0973 49.9375 74.2675 49.5023 75.3313 48.5697C76.395 47.6371 77.0865 46.3936 77.4588 44.715C77.5652 44.0311 77.6184 43.4715 77.6184 42.9741C77.6184 41.855 77.2992 40.9846 76.7673 40.3629C76.1823 39.7411 75.2249 39.4303 73.842 39.4303H67.8317L65.9169 49.8753H71.6613V49.9375Z" fill="#D00505"/>
</svg>
