<svg width="117" height="118" viewBox="0 0 117 118" fill="none" xmlns="http://www.w3.org/2000/svg">
<rect x="1.65039" y="2.21289" width="114" height="114" rx="9.80645" stroke="url(#paint0_linear_647_31153)" stroke-width="2.45161"/>
<mask id="mask0_647_31153" style="mask-type:luminance" maskUnits="userSpaceOnUse" x="16" y="34" width="86" height="50">
<path d="M101.577 34.5918H16.3115V83.4894H101.577V34.5918Z" fill="white"/>
</mask>
<g mask="url(#mask0_647_31153)">
<path d="M56.1117 83.4894H38.8115L61.4874 34.5918H78.7875L56.1117 83.4894Z" fill="url(#paint1_linear_647_31153)"/>
<path d="M84.2756 83.4894H101.576L78.8999 34.5918H61.5996L84.2756 83.4894Z" fill="url(#paint2_linear_647_31153)"/>
<path d="M33.6117 83.4894H16.3115L38.9874 34.5918H56.2875L33.6117 83.4894Z" fill="url(#paint3_linear_647_31153)"/>
<g style="mix-blend-mode:multiply" opacity="0.7">
<path d="M49.0283 61.4576L57.6785 80.1127L66.3285 61.4576L57.6785 42.8086L49.0283 61.4576Z" fill="#536DFE"/>
</g>
<path d="M61.7764 83.4894H79.0766L56.4007 34.5918H39.1006L61.7764 83.4894Z" fill="url(#paint4_linear_647_31153)"/>
</g>
<defs>
<linearGradient id="paint0_linear_647_31153" x1="128.288" y1="59.2129" x2="-10.2527" y2="64.7221" gradientUnits="userSpaceOnUse">
<stop stop-color="#63A7FA"/>
<stop offset="0.55199" stop-color="#4CFFD5"/>
<stop offset="1" stop-color="#4185F3"/>
</linearGradient>
<linearGradient id="paint1_linear_647_31153" x1="58.8026" y1="35.9602" x2="58.8026" y2="83.5459" gradientUnits="userSpaceOnUse">
<stop stop-color="#3D5AFE"/>
<stop offset="1" stop-color="#40C4FF"/>
</linearGradient>
<linearGradient id="paint2_linear_647_31153" x1="66.9064" y1="37.1967" x2="99.2159" y2="85.1953" gradientUnits="userSpaceOnUse">
<stop stop-color="#4CFFD5"/>
<stop offset="1" stop-color="#3D5AFE"/>
</linearGradient>
<linearGradient id="paint3_linear_647_31153" x1="36.3027" y1="35.9602" x2="36.3027" y2="83.5459" gradientUnits="userSpaceOnUse">
<stop stop-color="#3D5AFE"/>
<stop offset="1" stop-color="#40C4FF"/>
</linearGradient>
<linearGradient id="paint4_linear_647_31153" x1="44.4074" y1="37.1967" x2="76.7169" y2="85.1953" gradientUnits="userSpaceOnUse">
<stop stop-color="#4CFFD5"/>
<stop offset="1" stop-color="#3D5AFE"/>
</linearGradient>
</defs>
</svg>
