<svg width="44" height="34" viewBox="0 0 44 34" fill="none" xmlns="http://www.w3.org/2000/svg">
<path d="M37.1449 3.10433C34.3741 1.81266 31.3741 0.875163 28.2491 0.333496C28.1942 0.334279 28.1417 0.356744 28.1033 0.395997C27.7283 1.0835 27.2908 1.97933 26.9991 2.66683C23.6845 2.16714 20.3137 2.16714 16.9991 2.66683C16.7074 1.9585 16.2699 1.0835 15.8741 0.395997C15.8533 0.35433 15.7908 0.333496 15.7283 0.333496C12.6033 0.875163 9.6241 1.81266 6.83244 3.10433C6.8116 3.10433 6.79077 3.12516 6.76994 3.146C1.10327 11.6252 -0.459228 19.8752 0.311605 28.0418C0.311605 28.0835 0.332438 28.1252 0.374105 28.146C4.1241 30.896 7.72827 32.5627 11.2908 33.6668C11.3533 33.6877 11.4158 33.6668 11.4366 33.6252C12.2699 32.4793 13.0199 31.271 13.6658 30.0002C13.7074 29.9168 13.6658 29.8335 13.5824 29.8127C12.3949 29.3543 11.2699 28.8127 10.1658 28.1877C10.0824 28.146 10.0824 28.021 10.1449 27.9585C10.3741 27.7918 10.6033 27.6043 10.8324 27.4377C10.8741 27.396 10.9366 27.396 10.9783 27.4168C18.1449 30.6877 25.8741 30.6877 32.9574 27.4168C32.9991 27.396 33.0616 27.396 33.1033 27.4377C33.3324 27.6252 33.5616 27.7918 33.7908 27.9793C33.8741 28.0418 33.8741 28.1668 33.7699 28.2085C32.6866 28.8543 31.5408 29.3752 30.3533 29.8335C30.2699 29.8543 30.2491 29.9585 30.2699 30.021C30.9366 31.2918 31.6866 32.5002 32.4991 33.646C32.5616 33.6668 32.6241 33.6877 32.6866 33.6668C36.2699 32.5627 39.8741 30.896 43.6241 28.146C43.6658 28.1252 43.6866 28.0835 43.6866 28.0418C44.6033 18.6043 42.1658 10.4168 37.2283 3.146C37.2074 3.12516 37.1866 3.10433 37.1449 3.10433ZM14.7491 23.0627C12.6033 23.0627 10.8116 21.0835 10.8116 18.646C10.8116 16.2085 12.5616 14.2293 14.7491 14.2293C16.9574 14.2293 18.7074 16.2293 18.6866 18.646C18.6866 21.0835 16.9366 23.0627 14.7491 23.0627ZM29.2699 23.0627C27.1241 23.0627 25.3324 21.0835 25.3324 18.646C25.3324 16.2085 27.0824 14.2293 29.2699 14.2293C31.4783 14.2293 33.2283 16.2293 33.2074 18.646C33.2074 21.0835 31.4783 23.0627 29.2699 23.0627Z" fill="white"/>
</svg>
