<svg width="60" height="61" viewBox="0 0 60 61" fill="none" xmlns="http://www.w3.org/2000/svg">
<path fill-rule="evenodd" clip-rule="evenodd" d="M45.7911 9.92189C41.6292 5.76 35.9845 3.42188 30.0987 3.42188C24.2129 3.42188 18.5682 5.76 14.4063 9.92189C10.2444 14.0838 7.90625 19.7285 7.90625 25.6143C7.90625 34.802 14.9092 44.4286 28.6192 54.7111C29.046 55.0312 29.5652 55.2043 30.0987 55.2043C30.6322 55.2043 31.1514 55.0312 31.5782 54.7111C45.2882 44.4286 52.2912 34.802 52.2912 25.6143C52.2912 19.7285 49.953 14.0838 45.7911 9.92189Z" fill="url(#paint0_radial_665_766)"/>
<path fill-rule="evenodd" clip-rule="evenodd" d="M30.5639 27.6551C30.3032 27.4857 30.0785 27.2666 29.9025 27.0103C29.7265 26.754 29.6027 26.4656 29.5382 26.1615C29.4737 25.8574 29.4697 25.5435 29.5265 25.2379C29.5832 24.9322 29.6997 24.6407 29.8691 24.3801L32.4505 20.4115C32.6172 20.1449 32.8353 19.9142 33.0921 19.7329C33.3489 19.5515 33.6393 19.4232 33.9463 19.3552C34.2532 19.2873 34.5706 19.2812 34.88 19.3373C35.1893 19.3934 35.4844 19.5106 35.7479 19.6819C36.0115 19.8533 36.2383 20.0754 36.4151 20.3354C36.5919 20.5954 36.7151 20.888 36.7776 21.1961C36.8401 21.5042 36.8406 21.8217 36.779 22.13C36.7175 22.4383 36.5951 22.7312 36.4191 22.9917L33.8389 26.9615C33.4966 27.4878 32.9592 27.8565 32.345 27.9866C31.7309 28.1166 31.0902 27.9974 30.5639 27.6551ZM27.6735 27.8942C27.2763 27.1473 27.0865 26.3077 27.1237 25.4626C27.161 24.6175 27.424 23.7978 27.8854 23.0888L30.4656 19.1202C31.1503 18.0675 32.2251 17.3299 33.4535 17.0696C34.0618 16.9407 34.6895 16.9329 35.3008 17.0467C35.9121 17.1604 36.495 17.3934 37.0163 17.7324C37.5375 18.0714 37.9869 18.5097 38.3387 19.0224C38.6905 19.5351 38.938 20.112 39.0668 20.7203C39.1957 21.3286 39.2035 21.9563 39.0898 22.5676C38.976 23.1789 38.743 23.7618 38.404 24.283L35.8238 28.2516C35.3748 28.9425 34.7533 29.5043 34.0207 29.8814C33.2881 30.2585 32.4697 30.4378 31.6465 30.4017C30.8233 30.3656 30.0238 30.1153 29.327 29.6755C28.6303 29.2358 28.0603 28.6217 27.6735 27.8942Z" fill="#6FF2F2"/>
<path fill-rule="evenodd" clip-rule="evenodd" d="M24.7084 32.328C24.4477 32.1586 24.223 31.9395 24.047 31.6832C23.871 31.4269 23.7472 31.1385 23.6827 30.8344C23.6182 30.5303 23.6142 30.2164 23.671 29.9108C23.7278 29.6051 23.8442 29.3136 24.0136 29.053L26.5951 25.0844C26.7618 24.8178 26.9799 24.5871 27.2367 24.4058C27.4935 24.2244 27.7838 24.0961 28.0908 24.0282C28.3978 23.9602 28.7152 23.9541 29.0245 24.0102C29.3338 24.0663 29.6289 24.1835 29.8925 24.3548C30.1561 24.5262 30.3829 24.7484 30.5596 25.0083C30.7364 25.2683 30.8597 25.5609 30.9221 25.869C30.9846 26.1771 30.9851 26.4946 30.9236 26.8029C30.862 27.1112 30.7397 27.4041 30.5637 27.6646L27.9834 31.6344C27.6411 32.1607 27.1037 32.5294 26.4896 32.6595C25.8754 32.7895 25.2347 32.6703 24.7084 32.328ZM21.8181 32.5671C21.4209 31.8202 21.231 30.9806 21.2683 30.1355C21.3055 29.2904 21.5685 28.4707 22.0299 27.7617L24.6102 23.7943C24.9491 23.273 25.3874 22.8236 25.9 22.4718C26.4125 22.1199 26.9894 21.8724 27.5977 21.7435C28.2059 21.6146 28.8335 21.6067 29.4448 21.7204C30.0561 21.834 30.639 22.067 31.1602 22.4059C31.6814 22.7448 32.1308 23.1831 32.4827 23.6957C32.8346 24.2083 33.082 24.7852 33.2109 25.3934C33.3399 26.0016 33.3477 26.6293 33.2341 27.2405C33.1204 27.8518 32.8875 28.4347 32.5486 28.9559L29.9683 32.9245C29.5193 33.6154 28.8978 34.1772 28.1652 34.5543C27.4326 34.9314 26.6142 35.1108 25.7911 35.0747C24.9679 35.0386 24.1684 34.7882 23.4716 34.3485C22.7748 33.9087 22.2048 33.2946 21.8181 32.5671Z" fill="#6FF2F2"/>
<defs>
<radialGradient id="paint0_radial_665_766" cx="0" cy="0" r="1" gradientUnits="userSpaceOnUse" gradientTransform="translate(30.0987 29.3131) rotate(90) scale(32.4552 27.8187)">
<stop stop-color="#111215" stop-opacity="0.15"/>
<stop offset="1" stop-color="#6FF2F2" stop-opacity="0.5"/>
</radialGradient>
</defs>
</svg>
