<svg width="61" height="60" viewBox="0 0 61 60" fill="none" xmlns="http://www.w3.org/2000/svg">
<path fill-rule="evenodd" clip-rule="evenodd" d="M46.5241 9.06949C42.3103 4.85561 36.595 2.48828 30.6357 2.48828C24.6764 2.48828 18.9611 4.85561 14.7472 9.06949C10.5333 13.2834 8.16602 18.9986 8.16602 24.9579C8.16602 34.2604 15.2564 44.0072 29.1377 54.4182C29.5699 54.7423 30.0955 54.9175 30.6357 54.9175C31.1759 54.9175 31.7015 54.7423 32.1337 54.4182C46.0149 44.0072 53.1054 34.2604 53.1054 24.9579C53.1054 18.9986 50.738 13.2834 46.5241 9.06949Z" fill="url(#paint0_radial_665_800)"/>
<path d="M41.1694 29.6328C41.2742 29.7371 41.3573 29.8612 41.414 29.9977C41.4707 30.1343 41.4999 30.2807 41.4999 30.4286C41.4999 30.5764 41.4707 30.7228 41.414 30.8594C41.3573 30.996 41.2742 31.12 41.1694 31.2244L38.9225 33.4713C38.7114 33.6824 38.4252 33.801 38.1267 33.801C37.8282 33.801 37.5419 33.6824 37.3309 33.4713C37.1198 33.2603 37.0012 32.974 37.0012 32.6755C37.0012 32.377 37.1198 32.0908 37.3309 31.8797L37.6595 31.5511H37.4638C36.3313 31.5499 35.2154 31.2789 34.2085 30.7607C33.2015 30.2425 32.3324 29.4919 31.6732 28.5711L27.771 23.1044C27.32 22.4742 26.7254 21.9605 26.0363 21.6059C25.3473 21.2513 24.5837 21.066 23.8088 21.0653H21.6499C21.3519 21.0653 21.0661 20.9469 20.8554 20.7362C20.6447 20.5255 20.5264 20.2397 20.5264 19.9418C20.5264 19.6438 20.6447 19.358 20.8554 19.1474C21.0661 18.9367 21.3519 18.8183 21.6499 18.8183H23.8088C24.9413 18.8195 26.0572 19.0905 27.0642 19.6087C28.0711 20.1269 28.9402 20.8775 29.5994 21.7983L33.5045 27.265C33.9554 27.8952 34.5501 28.4089 35.2391 28.7635C35.9281 29.1181 36.6917 29.3034 37.4666 29.3041H37.6595L37.3299 28.9755C37.1189 28.7645 37.0003 28.4782 37.0003 28.1797C37.0003 27.8812 37.1189 27.595 37.3299 27.3839C37.541 27.1729 37.8273 27.0543 38.1257 27.0543C38.4242 27.0543 38.7105 27.1729 38.9215 27.3839L41.1694 29.6328ZM32.2171 22.8338C32.4414 23.0299 32.7343 23.1289 33.0316 23.1091C33.3288 23.0893 33.606 22.9522 33.8022 22.728C34.2592 22.2057 34.8226 21.7871 35.4546 21.5003C36.0866 21.2135 36.7726 21.0652 37.4666 21.0653H37.6595L37.3299 21.3939C37.1189 21.6049 37.0003 21.8912 37.0003 22.1897C37.0003 22.4882 37.1189 22.7744 37.3299 22.9855C37.541 23.1965 37.8273 23.3151 38.1257 23.3151C38.4242 23.3151 38.7105 23.1965 38.9215 22.9855L41.1685 20.7385C41.2732 20.6341 41.3563 20.5101 41.4131 20.3736C41.4698 20.237 41.4989 20.0906 41.4989 19.9427C41.4989 19.7948 41.4698 19.6484 41.4131 19.5119C41.3563 19.3753 41.2732 19.2513 41.1685 19.1469L38.9215 16.8999C38.7105 16.6889 38.4242 16.5703 38.1257 16.5703C37.8273 16.5703 37.541 16.6889 37.3299 16.8999C37.1189 17.111 37.0003 17.3973 37.0003 17.6957C37.0003 17.9942 37.1189 18.2805 37.3299 18.4915L37.6595 18.8183H37.4638C36.4492 18.8188 35.4465 19.0362 34.5228 19.4561C33.5992 19.8759 32.776 20.4884 32.1085 21.2525C31.9139 21.4769 31.8161 21.7692 31.8365 22.0656C31.8568 22.3619 31.9937 22.6381 32.2171 22.8338ZM29.0583 27.5356C28.834 27.3395 28.5411 27.2404 28.2439 27.2603C27.9466 27.2801 27.6694 27.4172 27.4732 27.6414C27.0163 28.1637 26.4529 28.5823 25.8209 28.8691C25.1889 29.1559 24.5028 29.3042 23.8088 29.3041H21.6499C21.3519 29.3041 21.0661 29.4225 20.8554 29.6332C20.6447 29.8439 20.5264 30.1297 20.5264 30.4276C20.5264 30.7256 20.6447 31.0113 20.8554 31.222C21.0661 31.4327 21.3519 31.5511 21.6499 31.5511H23.8088C24.8234 31.5506 25.8261 31.3332 26.7498 30.9133C27.6734 30.4935 28.4966 29.881 29.1641 29.1169C29.359 28.8928 29.4573 28.6007 29.4375 28.3044C29.4177 28.0081 29.2813 27.7317 29.0583 27.5356Z" fill="#8B94E2"/>
<defs>
<radialGradient id="paint0_radial_665_800" cx="0" cy="0" r="1" gradientUnits="userSpaceOnUse" gradientTransform="translate(30.6357 28.7029) rotate(90) scale(32.8606 28.1662)">
<stop stop-color="#111215" stop-opacity="0.15"/>
<stop offset="1" stop-color="#8B94E2" stop-opacity="0.5"/>
</radialGradient>
</defs>
</svg>
