<svg width="55" height="56" viewBox="0 0 55 56" fill="none" xmlns="http://www.w3.org/2000/svg">
<path fill-rule="evenodd" clip-rule="evenodd" d="M41.8862 9.18141C38.0408 5.33607 32.8254 3.17578 27.3873 3.17578C21.9492 3.17578 16.7338 5.33607 12.8884 9.18141C9.0431 13.0267 6.88281 18.2421 6.88281 23.6803C6.88281 32.1691 13.3531 41.0635 26.0203 50.5639C26.4147 50.8597 26.8943 51.0196 27.3873 51.0196C27.8802 51.0196 28.3599 50.8597 28.7543 50.5639C41.4215 41.0635 47.8918 32.1691 47.8918 23.6803C47.8918 18.2421 45.7315 13.0267 41.8862 9.18141Z" fill="url(#paint0_radial_665_812)"/>
<path fill-rule="evenodd" clip-rule="evenodd" d="M21.012 18.6233C20.3473 18.6233 19.7099 18.8873 19.2399 19.3573C18.7699 19.8273 18.5059 20.4647 18.5059 21.1294V29.3312C18.5059 29.9959 18.7699 30.6333 19.2399 31.1033C19.7099 31.5733 20.3473 31.8373 21.012 31.8373H33.7703C34.435 31.8373 35.0724 31.5733 35.5424 31.1033C36.0124 30.6333 36.2764 29.9959 36.2764 29.3312V21.1294C36.2764 20.4647 36.0124 19.8273 35.5424 19.3573C35.0724 18.8873 34.435 18.6233 33.7703 18.6233H21.012ZM31.492 24.0912C31.1899 24.0912 30.9002 24.2112 30.6865 24.4248C30.4729 24.6384 30.3529 24.9282 30.3529 25.2303C30.3529 25.5324 30.4729 25.8222 30.6865 26.0358C30.9002 26.2494 31.1899 26.3694 31.492 26.3694C31.7942 26.3694 32.0839 26.2494 32.2975 26.0358C32.5112 25.8222 32.6312 25.5324 32.6312 25.2303C32.6312 24.9282 32.5112 24.6384 32.2975 24.4248C32.0839 24.2112 31.7942 24.0912 31.492 24.0912Z" fill="#AF85E3"/>
<path d="M31.4764 15.726C31.7463 15.6541 32.029 15.6452 32.3028 15.6999C32.5766 15.7546 32.8342 15.8715 33.0557 16.0415C33.2772 16.2116 33.4567 16.4302 33.5802 16.6807C33.7038 16.9311 33.7682 17.2065 33.7684 17.4858H24.6553L31.4764 15.726Z" fill="#AF85E3"/>
<defs>
<radialGradient id="paint0_radial_665_812" cx="0" cy="0" r="1" gradientUnits="userSpaceOnUse" gradientTransform="translate(27.3873 27.0977) rotate(90) scale(29.9866 25.7028)">
<stop stop-color="#111215" stop-opacity="0.15"/>
<stop offset="1" stop-color="#AF85E3" stop-opacity="0.5"/>
</radialGradient>
</defs>
</svg>
