<svg width="114" height="114" viewBox="0 0 114 114" fill="none" xmlns="http://www.w3.org/2000/svg">
<path d="M57.0721 5.11233C68.2891 5.18304 79.0186 9.7068 86.9002 17.6884C94.7818 25.67 99.17 36.4557 99.0992 47.6727C98.9889 65.1824 85.5272 83.4443 59.2755 102.876C58.4582 103.481 57.4668 103.804 56.45 103.798C55.4332 103.791 54.4459 103.455 53.6363 102.84C27.6317 83.0793 14.4013 64.6491 14.5117 47.1395C14.5824 35.9225 19.1062 25.193 27.0878 17.3114C35.0694 9.42974 45.8551 5.04161 57.0721 5.11233ZM56.8943 33.3082C53.1553 33.2846 49.5601 34.7473 46.8996 37.3745C44.239 40.0017 42.7311 43.5782 42.7075 47.3172C42.684 51.0562 44.1467 54.6515 46.7739 57.312C49.4011 59.9725 52.9776 61.4805 56.7166 61.504C60.4556 61.5276 64.0508 60.0649 66.7114 57.4377C69.3719 54.8105 70.8798 51.234 70.9034 47.495C70.927 43.756 69.4643 40.1608 66.8371 37.5002C64.2099 34.8397 60.6333 33.3318 56.8943 33.3082Z" fill="url(#paint0_radial_665_824)"/>
<path d="M68.0974 56.5641L76.0975 64.6638L73.4209 67.3068L65.4227 59.2052C62.4126 61.5872 58.6793 62.8695 54.8409 62.8399C45.5025 62.781 37.9712 55.1542 38.0301 45.8157C38.0889 36.4772 45.7158 28.946 55.0542 29.0048C64.3927 29.0637 71.924 36.6905 71.8651 46.029C71.8464 49.8674 70.5171 53.5843 68.0974 56.5641Z" fill="#8B94E2"/>
<path d="M51.5983 50.7125C52.2808 50.7168 52.8427 50.1619 52.847 49.4794L52.8744 45.1362C52.8787 44.4537 52.3238 43.8917 51.6413 43.8874C50.9588 43.8831 50.3968 44.438 50.3925 45.1205L50.3652 49.4637C50.3609 50.1462 50.9157 50.7082 51.5983 50.7125ZM57.8224 47.6493L57.8106 49.5107C57.8063 50.1932 58.3612 50.7551 59.0437 50.7594C59.7262 50.7637 60.2882 50.2088 60.2925 49.5263L60.3042 47.6649C60.3085 46.9824 59.7536 46.4205 59.0711 46.4162C58.3886 46.4119 57.8267 46.9668 57.8224 47.6493ZM55.321 50.7359C56.0035 50.7402 56.5654 50.1853 56.5697 49.5028L56.6167 42.0574C56.621 41.3749 56.0661 40.8129 55.3836 40.8086C54.7011 40.8043 54.1391 41.3592 54.1348 42.0417L54.0879 49.4872C54.0836 50.1697 54.6385 50.7316 55.321 50.7359Z" fill="white"/>
<defs>
<radialGradient id="paint0_radial_665_824" cx="0" cy="0" r="1" gradientUnits="userSpaceOnUse" gradientTransform="translate(56.761 54.4551) rotate(90.3612) scale(61.8534 53.0172)">
<stop stop-color="#111215" stop-opacity="0.15"/>
<stop offset="1" stop-color="#8B94E2" stop-opacity="0.5"/>
</radialGradient>
</defs>
</svg>
