<svg width="1132" height="522" viewBox="0 0 1132 522" fill="none" xmlns="http://www.w3.org/2000/svg">
<path d="M1123.61 477.829V477.829C1113.4 472.552 1108.3 469.914 1103.83 467.863C1041.3 439.149 943.913 428.737 886.282 444.603C882.165 445.736 877.526 447.333 868.247 450.526L731.45 497.606C689.891 511.909 608.337 500.23 573.205 474.944V474.944C553.638 460.861 554.321 446.156 574.957 437.221L970.591 265.909C989.93 257.535 992.1 244.099 976.277 230.694V230.694C942.521 202.096 849.248 188.625 807.537 206.323L699.99 251.956C662.64 267.804 583.08 260.4 537.481 236.832V236.832C499.451 217.176 435.77 208.115 393.411 216.332L269.601 240.349C238.387 246.404 191.462 239.727 163.438 225.243V225.243C134.688 210.383 136.521 192.866 167.533 186.118L471.41 119.991C498.344 114.13 499.937 98.9169 474.967 86.0114V86.0114C449.998 73.1059 407.921 67.3953 380.987 73.2564L314.6 87.7029C312.534 88.1526 311.5 88.3774 310.614 88.5611C248.737 101.383 153.882 88.5093 96.3862 59.4862C95.5624 59.0703 94.6045 58.5752 92.6886 57.585L8.72486 14.1885" stroke="white" stroke-opacity="0.8" stroke-width="10.6055"/>
<circle cx="1124.5" cy="479.5" r="6.5" fill="#D9D9D9"/>
</svg>
