<svg width="124" height="124" viewBox="0 0 124 124" fill="none" xmlns="http://www.w3.org/2000/svg">
<rect x="2" y="2" width="120" height="120" rx="10.3226" stroke="url(#paint0_linear_382_6892)" stroke-width="2.58065"/>
<path fill-rule="evenodd" clip-rule="evenodd" d="M62 106C86.3005 106 106 86.3005 106 62C106 37.6995 86.3005 18 62 18C37.6995 18 18 37.6995 18 62C18 86.3005 37.6995 106 62 106ZM59.8344 68.4844C60.8406 67.0531 61.5188 65.3125 61.8688 63.2625C62.2188 61.1312 62.1125 59.3125 61.55 57.8063C60.9938 56.2938 60.0844 55.1375 58.8219 54.3375C57.5656 53.5375 56.0719 53.1375 54.3406 53.1375C52.6719 53.1375 51.1125 53.5156 49.6625 54.2719C48.2125 55.0219 46.9844 56.1156 45.9781 57.5531C44.9719 58.9844 44.3 60.7281 43.9625 62.7844C43.6125 64.9094 43.7188 66.725 44.2812 68.2313C44.8438 69.7313 45.7531 70.8781 47.0094 71.6719C48.2719 72.4656 49.775 72.8625 51.5188 72.8625C53.1813 72.8625 54.7313 72.4906 56.1688 71.7469C57.6125 71.0031 58.8344 69.9156 59.8344 68.4844ZM57.8 59.4656C58.0375 60.3594 58.0469 61.4656 57.8281 62.7844C57.5969 64.1719 57.1906 65.35 56.6094 66.3187C56.0281 67.2812 55.3125 68.0156 54.4625 68.5219C53.6188 69.0219 52.6875 69.2719 51.6688 69.2719C50.7313 69.2719 49.9469 69.0469 49.3156 68.5969C48.6906 68.1406 48.2563 67.4688 48.0125 66.5812C47.775 65.6937 47.7688 64.5875 47.9938 63.2625C48.2188 61.875 48.6219 60.6969 49.2031 59.7281C49.7906 58.7531 50.5094 58.0094 51.3594 57.4969C52.2156 56.9844 53.1562 56.7281 54.1813 56.7281C55.125 56.7281 55.9062 56.9594 56.525 57.4219C57.1438 57.8844 57.5688 58.5656 57.8 59.4656ZM66.507 53.4L63.3195 72.6H67.3789L68.4189 66.375H71.8227C73.3039 66.375 74.6102 66.1031 75.7414 65.5594C76.8727 65.0156 77.7914 64.2594 78.4977 63.2906C79.2102 62.3156 79.6727 61.1875 79.8852 59.9062C80.0914 58.6312 80.0039 57.5062 79.6227 56.5312C79.2477 55.55 78.5914 54.7844 77.6539 54.2344C76.7227 53.6781 75.532 53.4 74.082 53.4H66.507ZM68.9623 63.1219H71.7008C72.4883 63.1219 73.1602 62.9875 73.7164 62.7188C74.2789 62.4437 74.7258 62.0656 75.057 61.5844C75.3883 61.0969 75.6039 60.5375 75.7039 59.9062C75.8102 59.2625 75.7758 58.7031 75.6008 58.2281C75.4258 57.7531 75.1039 57.3844 74.6352 57.1219C74.1727 56.8531 73.5508 56.7188 72.7695 56.7188H70.032L68.9623 63.1219Z" fill="url(#paint1_radial_382_6892)"/>
<defs>
<linearGradient id="paint0_linear_382_6892" x1="135.303" y1="62" x2="-10.5296" y2="67.7991" gradientUnits="userSpaceOnUse">
<stop stop-color="#63A7FA"/>
<stop offset="0.284047" stop-color="#8B94E2"/>
<stop offset="0.636445" stop-color="#6FF2F2"/>
<stop offset="1" stop-color="#4185F3"/>
</linearGradient>
<radialGradient id="paint1_radial_382_6892" cx="0" cy="0" r="1" gradientUnits="userSpaceOnUse" gradientTransform="translate(65.3 54.3) rotate(130.539) scale(55.0028 47.4128)">
<stop stop-color="#61F954"/>
<stop offset="0.269954" stop-color="#47EC77"/>
<stop offset="0.675567" stop-color="#1FD9AC"/>
<stop offset="1" stop-color="#00CAD7"/>
</radialGradient>
</defs>
</svg>
