<svg width="118" height="118" viewBox="0 0 118 118" fill="none" xmlns="http://www.w3.org/2000/svg">
<rect x="2" y="2" width="114" height="114" rx="9.80645" stroke="url(#paint0_linear_647_31515)" stroke-width="2.45161"/>
<mask id="mask0_647_31515" style="mask-type:luminance" maskUnits="userSpaceOnUse" x="35" y="19" width="49" height="80">
<path d="M84 19H35V99H84V19Z" fill="white"/>
</mask>
<g mask="url(#mask0_647_31515)">
<path d="M58.152 19L57.6738 20.823V73.7192L58.152 74.2547L80.0274 59.741L58.152 19Z" fill="#C1CCF8"/>
<path d="M58.1551 19L36.2793 59.741L58.1551 74.2547V48.5805V19Z" fill="white"/>
<path d="M58.1601 78.9074L57.8906 79.2764V98.1189L58.1601 99.0019L80.0486 64.4014L58.1601 78.9074Z" fill="#C1CCF8"/>
<path d="M58.1551 99.0019V78.9074L36.2793 64.4014L58.1551 99.0019Z" fill="white"/>
<path d="M58.1709 74.2585L80.046 59.7447L58.1709 48.584V74.2585Z" fill="#8197EE"/>
<path d="M36.2793 59.7447L58.1551 74.2585V48.584L36.2793 59.7447Z" fill="#C1CCF8"/>
</g>
<defs>
<linearGradient id="paint0_linear_647_31515" x1="128.638" y1="59" x2="-9.9031" y2="64.5092" gradientUnits="userSpaceOnUse">
<stop stop-color="#63A7FA"/>
<stop offset="0.55199" stop-color="#4CFFD5"/>
<stop offset="1" stop-color="#4185F3"/>
</linearGradient>
</defs>
</svg>
