<svg width="118" height="118" viewBox="0 0 118 118" fill="none" xmlns="http://www.w3.org/2000/svg">
<rect x="2" y="2" width="114" height="114" rx="9.80645" stroke="url(#paint0_linear_647_31436)" stroke-width="2.45161"/>
<g clip-path="url(#clip0_647_31436)">
<path d="M79.8 19.7998H38.2C27.5963 19.7998 19 28.3958 19 38.9998V78.9998C19 89.6035 27.5963 98.1998 38.2 98.1998H79.8C90.404 98.1998 99 89.6035 99 78.9998V38.9998C99 28.3958 90.404 19.7998 79.8 19.7998ZM82.5183 77.0205V78.7005C83.4743 78.6151 84.3377 79.3355 84.3313 80.2971V82.1931H67.1857V80.2971C67.1793 79.3355 68.0443 78.6148 69 78.7005V77.0205C69 76.2871 69.5083 75.6805 70.1933 75.4938L70.1617 60.9455C69.632 55.1568 64.6943 50.6191 58.6833 50.6191C52.6707 50.6191 47.7347 55.1568 47.205 60.9455L47.173 75.4715C47.9317 75.6128 48.9457 76.1658 48.9713 77.0208V78.7008C49.9257 78.6155 50.7903 79.3358 50.784 80.2975V82.1935H33.6383V80.2975C33.632 79.3358 34.4967 78.6151 35.451 78.7008V77.0208C35.451 76.1778 36.1213 75.5048 36.963 75.4461V49.1295H35.328L33.2993 42.3598L42.101 42.3581V35.8061H75.266V42.3581H84.6723L82.642 49.1295H81.0083V75.4458C81.848 75.5048 82.5183 76.1775 82.5183 77.0205Z" fill="url(#paint1_linear_647_31436)"/>
</g>
<defs>
<linearGradient id="paint0_linear_647_31436" x1="128.638" y1="59" x2="-9.9031" y2="64.5092" gradientUnits="userSpaceOnUse">
<stop stop-color="#63A7FA"/>
<stop offset="0.55199" stop-color="#4CFFD5"/>
<stop offset="1" stop-color="#4185F3"/>
</linearGradient>
<linearGradient id="paint1_linear_647_31436" x1="14" y1="67" x2="99" y2="93" gradientUnits="userSpaceOnUse">
<stop stop-color="#4185F3"/>
<stop offset="0.368813" stop-color="#4CFFD5"/>
<stop offset="1" stop-color="#63A7FA"/>
</linearGradient>
<clipPath id="clip0_647_31436">
<rect width="80" height="80" fill="white" transform="translate(19 19)"/>
</clipPath>
</defs>
</svg>
