<svg width="118" height="118" viewBox="0 0 118 118" fill="none" xmlns="http://www.w3.org/2000/svg">
<rect x="2" y="2" width="114" height="114" rx="9.80645" stroke="url(#paint0_linear_647_31505)" stroke-width="2.45161"/>
<g clip-path="url(#clip0_647_31505)">
<path d="M97.799 68.676C92.4565 90.1048 70.7515 103.145 49.3203 97.8023C27.899 92.4598 14.8577 70.7548 20.2015 49.3273C25.5415 27.896 47.2453 14.8535 68.6703 20.196C90.1003 25.5385 103.142 47.246 97.799 68.676Z" fill="#F7931A"/>
<path d="M76.6365 53.3013C77.4315 47.9788 73.379 45.1175 67.8378 43.2088L69.6353 35.9988L65.2453 34.905L63.4953 41.925C62.3428 41.6375 61.1578 41.3663 59.9803 41.0975L61.7428 34.0312L57.3565 32.9375L55.5578 40.145C54.6028 39.9275 53.6653 39.7125 52.7553 39.4863L52.7603 39.4638L46.7078 37.9525L45.5403 42.64C45.5403 42.64 48.7965 43.3862 48.7278 43.4325C50.5053 43.8763 50.8278 45.0525 50.7728 45.985L48.7253 54.1988C48.8478 54.23 49.0065 54.275 49.1815 54.345L48.719 54.23L45.8478 65.7363C45.6303 66.2762 45.079 67.0863 43.8365 66.7788C43.8803 66.8425 40.6465 65.9825 40.6465 65.9825L38.4678 71.0075L44.1803 72.4312C45.2428 72.6975 46.284 72.9762 47.3078 73.2387L45.4915 80.5325L49.8753 81.6263L51.6753 74.4113C52.8715 74.7363 54.034 75.0362 55.1715 75.3187L53.379 82.5L57.7678 83.5938L59.584 76.315C67.0678 77.7313 72.6965 77.16 75.0628 70.3925C76.9715 64.9425 74.969 61.7987 71.0315 59.7475C73.899 59.0837 76.0603 57.1975 76.6365 53.3013ZM66.6078 67.3625C65.2503 72.8125 56.0753 69.8675 53.099 69.1275L55.509 59.4663C58.484 60.2088 68.0215 61.6787 66.6078 67.3625ZM67.964 53.2225C66.7265 58.18 59.089 55.6612 56.6103 55.0437L58.7953 46.2813C61.274 46.8988 69.254 48.0513 67.964 53.2225Z" fill="white"/>
</g>
<defs>
<linearGradient id="paint0_linear_647_31505" x1="128.638" y1="59" x2="-9.9031" y2="64.5092" gradientUnits="userSpaceOnUse">
<stop stop-color="#63A7FA"/>
<stop offset="0.55199" stop-color="#4CFFD5"/>
<stop offset="1" stop-color="#4185F3"/>
</linearGradient>
<clipPath id="clip0_647_31505">
<rect width="80" height="80" fill="white" transform="translate(19 19)"/>
</clipPath>
</defs>
</svg>
