<svg width="124" height="124" viewBox="0 0 124 124" fill="none" xmlns="http://www.w3.org/2000/svg">
<rect x="2" y="2" width="120" height="120" rx="10.3226" stroke="url(#paint0_linear_382_6898)" stroke-width="2.58065"/>
<path fill-rule="evenodd" clip-rule="evenodd" d="M105.5 62C105.5 66.6357 104.775 71.102 103.432 75.2917H95.7355C97.3583 71.1761 98.2498 66.6921 98.2498 62C98.2498 57.3078 97.3584 52.8239 95.7355 48.7083H103.432C104.775 52.898 105.5 57.3643 105.5 62ZM91.872 41.4583C85.3348 31.9698 74.3937 25.75 61.9998 25.75C41.9795 25.75 25.7498 41.9796 25.7498 62C25.7498 82.0203 41.9795 98.25 61.9998 98.25C74.3936 98.25 85.3347 92.0302 91.872 82.5417H100.354C93.0196 96.2073 78.595 105.5 62 105.5C37.9756 105.5 18.5 86.0244 18.5 62C18.5 37.9756 37.9756 18.5 62 18.5C78.595 18.5 93.0196 27.7927 100.354 41.4583H91.872ZM82.4702 82.5417C77.2251 87.7687 69.9898 91 61.9998 91C47.1696 91 34.9394 79.8679 33.2094 65.5041H44.7768C46.4397 75.1797 54.8705 82.5417 65.0208 82.5417H82.4702ZM87.7812 75.2917H65.0208C58.8928 75.2917 53.7334 71.1447 52.1958 65.5041L90.7903 65.5041C90.3698 68.9953 89.329 72.2957 87.7812 75.2917ZM52.2643 58.2541L90.7601 58.2541C90.3214 54.8522 89.2932 51.635 87.7813 48.7083H65.0208C58.9807 48.7083 53.8817 52.7371 52.2643 58.2541ZM44.8199 58.2541C46.5806 48.6979 54.9553 41.4583 65.0208 41.4583H82.4703C77.2252 36.2313 69.9899 33 61.9998 33C47.2529 33 35.0769 44.0073 33.2395 58.2541H44.8199Z" fill="url(#paint1_linear_382_6898)"/>
<defs>
<linearGradient id="paint0_linear_382_6898" x1="135.303" y1="62" x2="-10.5296" y2="67.7991" gradientUnits="userSpaceOnUse">
<stop stop-color="#63A7FA"/>
<stop offset="0.284047" stop-color="#8B94E2"/>
<stop offset="0.636445" stop-color="#6FF2F2"/>
<stop offset="1" stop-color="#4185F3"/>
</linearGradient>
<linearGradient id="paint1_linear_382_6898" x1="88.8854" y1="26.0521" x2="25.1458" y2="87.375" gradientUnits="userSpaceOnUse">
<stop stop-color="#04FFE8"/>
<stop offset="0.570612" stop-color="#12FEA0"/>
<stop offset="1" stop-color="#6BF94C"/>
</linearGradient>
</defs>
</svg>
