<svg width="118" height="118" viewBox="0 0 118 118" fill="none" xmlns="http://www.w3.org/2000/svg">
<rect x="2" y="2" width="114" height="114" rx="9.80645" stroke="url(#paint0_linear_647_31428)" stroke-width="2.45161"/>
<path d="M59.4875 19L58.9521 20.8231V73.7204L59.4875 74.2559L83.9762 59.7419L59.4875 19Z" fill="#63A7FA"/>
<path d="M59.4893 19L35 59.7419L59.4893 74.2559V48.5811V19Z" fill="#4185F3"/>
<path d="M59.497 78.9047L59.1953 79.2737V98.1166L59.497 98.9996L84.0005 64.3984L59.497 78.9047Z" fill="#63A7FA"/>
<path d="M59.4893 98.9996V78.9047L35 64.3984L59.4893 98.9996Z" fill="#4185F3"/>
<path d="M59.5049 74.2629L83.9934 59.7489L59.5049 48.5879V74.2629Z" fill="#4CFFD5"/>
<path d="M35 59.7489L59.4893 74.2629V48.5879L35 59.7489Z" fill="#63A7FA"/>
<defs>
<linearGradient id="paint0_linear_647_31428" x1="128.638" y1="59" x2="-9.9031" y2="64.5092" gradientUnits="userSpaceOnUse">
<stop stop-color="#63A7FA"/>
<stop offset="0.55199" stop-color="#4CFFD5"/>
<stop offset="1" stop-color="#4185F3"/>
</linearGradient>
</defs>
</svg>
