<svg width="124" height="124" viewBox="0 0 124 124" fill="none" xmlns="http://www.w3.org/2000/svg">
<rect x="2" y="2" width="120" height="120" rx="10.3226" stroke="url(#paint0_linear_382_6896)" stroke-width="2.58065"/>
<path fill-rule="evenodd" clip-rule="evenodd" d="M62 102C84.0914 102 102 84.0914 102 62C102 39.9086 84.0914 22 62 22C39.9086 22 22 39.9086 22 62C22 84.0914 39.9086 102 62 102ZM62.8054 28.443H61.7315V60.6577H28.9799V62.2685C38.8233 61.9105 59.1544 67.906 61.7315 94.7517H63.0738V62.1438H95.557V60.6577C86.0716 61.3736 66.2416 55.9329 62.8054 28.443Z" fill="url(#paint1_linear_382_6896)"/>
<defs>
<linearGradient id="paint0_linear_382_6896" x1="135.303" y1="62" x2="-10.5296" y2="67.7991" gradientUnits="userSpaceOnUse">
<stop stop-color="#63A7FA"/>
<stop offset="0.284047" stop-color="#8B94E2"/>
<stop offset="0.636445" stop-color="#6FF2F2"/>
<stop offset="1" stop-color="#4185F3"/>
</linearGradient>
<linearGradient id="paint1_linear_382_6896" x1="40.255" y1="24.6846" x2="80.5235" y2="100.121" gradientUnits="userSpaceOnUse">
<stop stop-color="#04FFE8"/>
<stop offset="1" stop-color="#17FE88"/>
</linearGradient>
</defs>
</svg>
