<svg width="118" height="118" viewBox="0 0 118 118" fill="none" xmlns="http://www.w3.org/2000/svg">
<rect x="2" y="2" width="114" height="114" rx="9.80645" stroke="url(#paint0_linear_647_31420)" stroke-width="2.45161"/>
<path d="M59 19C81.0914 19 99 36.9086 99 59C99 81.0914 81.0914 99 59 99C36.9086 99 19 81.0914 19 59C19 36.9086 36.9086 19 59 19ZM52.0371 50.3066C50.5201 50.3066 49.1023 50.6504 47.7842 51.3379C46.466 52.0197 45.3493 53.0145 44.4346 54.3213C43.5199 55.6224 42.9093 57.2079 42.6025 59.0771C42.2845 61.0087 42.3803 62.6591 42.8916 64.0283C43.403 65.3919 44.2301 66.4347 45.3721 67.1562C46.5198 67.8778 47.8865 68.2383 49.4717 68.2383C50.983 68.2383 52.3924 67.9007 53.6992 67.2246C55.0116 66.5485 56.1222 65.5598 57.0312 64.2588C57.946 62.9577 58.5627 61.3752 58.8809 59.5117C59.199 57.5742 59.1022 55.9201 58.5908 54.5508C58.0851 53.1759 57.258 52.1247 56.1104 51.3975C54.9684 50.6704 53.6107 50.3067 52.0371 50.3066ZM63.0977 50.5459L60.1992 68H63.8896L64.835 62.3408H67.9297C69.2762 62.3408 70.4638 62.0939 71.4922 61.5996C72.5206 61.1053 73.356 60.4178 73.998 59.5371C74.6458 58.6507 75.0656 57.6247 75.2588 56.46C75.4462 55.3009 75.3671 54.2779 75.0205 53.3916C74.6796 52.4998 74.0826 51.8036 73.2305 51.3037C72.3839 50.7982 71.3014 50.5459 69.9834 50.5459H63.0977ZM51.8916 53.5713C52.7496 53.5713 53.46 53.7817 54.0225 54.2021C54.5849 54.6226 54.9714 55.2415 55.1816 56.0596C55.3975 56.8721 55.4059 57.8783 55.207 59.0771C54.9968 60.3383 54.6279 61.4095 54.0996 62.29C53.5712 63.165 52.9202 63.8328 52.1475 64.293C51.3806 64.7473 50.5342 64.9745 49.6084 64.9746C48.7561 64.9746 48.0426 64.7694 47.4688 64.3604C46.9007 63.9456 46.5057 63.335 46.2842 62.5283C46.0683 61.7216 46.0621 60.716 46.2666 59.5117C46.4711 58.2504 46.8378 57.1785 47.3662 56.2979C47.9003 55.4116 48.5545 54.7354 49.3271 54.2695C50.1053 53.8039 50.9601 53.5714 51.8916 53.5713ZM68.79 53.5625C69.5001 53.5625 70.0659 53.6845 70.4863 53.9287C70.9124 54.1673 71.2052 54.5028 71.3643 54.9346C71.5233 55.3663 71.5545 55.8748 71.458 56.46C71.3671 57.0337 71.1711 57.5423 70.8701 57.9854C70.569 58.4228 70.1626 58.7666 69.6514 59.0166C69.1458 59.2609 68.5351 59.3837 67.8193 59.3838H65.3291L66.3018 53.5625H68.79Z" fill="url(#paint1_linear_647_31420)"/>
<defs>
<linearGradient id="paint0_linear_647_31420" x1="128.638" y1="59" x2="-9.9031" y2="64.5092" gradientUnits="userSpaceOnUse">
<stop stop-color="#63A7FA"/>
<stop offset="0.55199" stop-color="#4CFFD5"/>
<stop offset="1" stop-color="#4185F3"/>
</linearGradient>
<linearGradient id="paint1_linear_647_31420" x1="94" y1="23" x2="28" y2="99" gradientUnits="userSpaceOnUse">
<stop stop-color="#63A7FA"/>
<stop offset="0.261359" stop-color="#4185F3"/>
<stop offset="0.726391" stop-color="#4CFFD5"/>
</linearGradient>
</defs>
</svg>
