<svg width="124" height="124" viewBox="0 0 124 124" fill="none" xmlns="http://www.w3.org/2000/svg">
<rect x="2" y="2" width="120" height="120" rx="10.3226" stroke="#3955BB" stroke-width="2.58065"/>
<mask id="mask0_20_152" style="mask-type:alpha" maskUnits="userSpaceOnUse" x="19" y="19" width="87" height="87">
<path d="M62.5 106C86.5244 106 106 86.5244 106 62.5C106 38.4756 86.5244 19 62.5 19C38.4756 19 19 38.4756 19 62.5C19 86.5244 38.4756 106 62.5 106Z" fill="#D9D9D9"/>
</mask>
<g mask="url(#mask0_20_152)">
<path d="M120.742 0.0878906H5.57617V115.254H120.742V0.0878906Z" fill="#A1723A"/>
<g filter="url(#filter0_f_20_152)">
<path d="M65.8226 104.169C91.4591 104.169 112.241 83.3928 112.241 57.7638C112.241 32.1348 91.4591 11.3584 65.8226 11.3584C40.1862 11.3584 19.4038 32.1348 19.4038 57.7638C19.4038 83.3928 40.1862 104.169 65.8226 104.169Z" fill="#531002"/>
</g>
<g filter="url(#filter1_f_20_152)">
<path d="M70.8266 89.4809C91.6195 89.4809 108.476 72.6189 108.476 51.8186C108.476 31.0183 91.6195 14.1562 70.8266 14.1562C50.0337 14.1562 33.1777 31.0183 33.1777 51.8186C33.1777 72.6189 50.0337 89.4809 70.8266 89.4809Z" fill="#2B5DF0"/>
</g>
<g filter="url(#filter2_f_20_152)">
<path d="M70.1397 91.6324C91.8166 91.6324 109.389 74.0538 109.389 52.3694C109.389 30.6851 91.8166 13.1064 70.1397 13.1064C48.4628 13.1064 30.8901 30.6851 30.8901 52.3694C30.8901 74.0538 48.4628 91.6324 70.1397 91.6324Z" fill="url(#paint0_radial_20_152)"/>
</g>
<g filter="url(#filter3_f_20_152)">
<path d="M76.6502 62.2574C87.5703 62.2574 96.4229 53.4048 96.4229 42.4846C96.4229 31.5645 87.5703 22.7119 76.6502 22.7119C65.73 22.7119 56.8774 31.5645 56.8774 42.4846C56.8774 53.4048 65.73 62.2574 76.6502 62.2574Z" fill="#FCB8D4"/>
</g>
<g filter="url(#filter4_f_20_152)">
<path d="M76.6373 50.3655C80.998 50.3655 84.533 46.8305 84.533 42.4699C84.533 38.1092 80.998 34.5742 76.6373 34.5742C72.2767 34.5742 68.7417 38.1092 68.7417 42.4699C68.7417 46.8305 72.2767 50.3655 76.6373 50.3655Z" fill="white"/>
</g>
<g filter="url(#filter5_f_20_152)">
<path d="M71.3907 121.305C110.577 121.305 142.344 89.5379 142.344 50.3516C142.344 11.1652 110.577 -20.6016 71.3907 -20.6016C32.2043 -20.6016 0.4375 11.1652 0.4375 50.3516C0.4375 89.5379 32.2043 121.305 71.3907 121.305Z" fill="url(#paint1_radial_20_152)" fill-opacity="0.9"/>
</g>
</g>
<defs>
<filter id="filter0_f_20_152" x="11.7353" y="3.68988" width="108.175" height="108.148" filterUnits="userSpaceOnUse" color-interpolation-filters="sRGB">
<feFlood flood-opacity="0" result="BackgroundImageFix"/>
<feBlend mode="normal" in="SourceGraphic" in2="BackgroundImageFix" result="shape"/>
<feGaussianBlur stdDeviation="3.83426" result="effect1_foregroundBlur_20_152"/>
</filter>
<filter id="filter1_f_20_152" x="17.8407" y="-1.18079" width="105.972" height="105.998" filterUnits="userSpaceOnUse" color-interpolation-filters="sRGB">
<feFlood flood-opacity="0" result="BackgroundImageFix"/>
<feBlend mode="normal" in="SourceGraphic" in2="BackgroundImageFix" result="shape"/>
<feGaussianBlur stdDeviation="7.66852" result="effect1_foregroundBlur_20_152"/>
</filter>
<filter id="filter2_f_20_152" x="25.1387" y="7.35505" width="90.0018" height="90.0291" filterUnits="userSpaceOnUse" color-interpolation-filters="sRGB">
<feFlood flood-opacity="0" result="BackgroundImageFix"/>
<feBlend mode="normal" in="SourceGraphic" in2="BackgroundImageFix" result="shape"/>
<feGaussianBlur stdDeviation="2.8757" result="effect1_foregroundBlur_20_152"/>
</filter>
<filter id="filter3_f_20_152" x="45.3747" y="11.2091" width="62.551" height="62.5515" filterUnits="userSpaceOnUse" color-interpolation-filters="sRGB">
<feFlood flood-opacity="0" result="BackgroundImageFix"/>
<feBlend mode="normal" in="SourceGraphic" in2="BackgroundImageFix" result="shape"/>
<feGaussianBlur stdDeviation="5.75139" result="effect1_foregroundBlur_20_152"/>
</filter>
<filter id="filter4_f_20_152" x="61.0732" y="26.9057" width="31.1285" height="31.1281" filterUnits="userSpaceOnUse" color-interpolation-filters="sRGB">
<feFlood flood-opacity="0" result="BackgroundImageFix"/>
<feBlend mode="normal" in="SourceGraphic" in2="BackgroundImageFix" result="shape"/>
<feGaussianBlur stdDeviation="3.83426" result="effect1_foregroundBlur_20_152"/>
</filter>
<filter id="filter5_f_20_152" x="-5.31389" y="-26.353" width="153.409" height="153.409" filterUnits="userSpaceOnUse" color-interpolation-filters="sRGB">
<feFlood flood-opacity="0" result="BackgroundImageFix"/>
<feBlend mode="normal" in="SourceGraphic" in2="BackgroundImageFix" result="shape"/>
<feGaussianBlur stdDeviation="2.8757" result="effect1_foregroundBlur_20_152"/>
</filter>
<radialGradient id="paint0_radial_20_152" cx="0" cy="0" r="1" gradientUnits="userSpaceOnUse" gradientTransform="translate(76.7599 41.2926) rotate(128.228) scale(74.1273 74.1214)">
<stop offset="0.286458" stop-color="#387AFA"/>
<stop offset="0.647782" stop-color="#387AFA" stop-opacity="0"/>
</radialGradient>
<radialGradient id="paint1_radial_20_152" cx="0" cy="0" r="1" gradientUnits="userSpaceOnUse" gradientTransform="translate(71.3907 50.3516) rotate(90) scale(70.9532)">
<stop offset="0.598958" stop-opacity="0"/>
<stop offset="0.671875"/>
<stop offset="0.734375" stop-opacity="0"/>
</radialGradient>
</defs>
</svg>
